<?xml version="1.0" encoding="utf-8"?>
<!-- Generator: Adobe Illustrator 15.0.0, SVG Export Plug-In . SVG Version: 6.00 Build 0)  -->
<svg version="1.1" id="Layer_1" xmlns="http://www.w3.org/2000/svg" xmlns:xlink="http://www.w3.org/1999/xlink" x="0px" y="0px"
	 width="128px" height="128px" viewBox="0 0 128 128" enable-background="new 0 0 128 128" xml:space="preserve">
<filter  id="Gaussian_Blur">
	<feGaussianBlur  in="SourceGraphic" stdDeviation="1"></feGaussianBlur>
</filter>
<g filter="url(#Gaussian_Blur)">
	
		<radialGradient id="SVGID_1_" cx="-163.3608" cy="129.6367" r="1" fx="-163.2868" fy="130.1817" gradientTransform="matrix(61 0 0 5.5 10029 -595.5)" gradientUnits="userSpaceOnUse">
		<stop  offset="0" style="stop-color:#000000;stop-opacity:0.54"/>
		<stop  offset="0.6523" style="stop-color:#000000;stop-opacity:0.12"/>
	</radialGradient>
	<path fill="url(#SVGID_1_)" d="M109,123c8.777,0,16-2.482,16-5.5l0,0c0-3.018-7.223-5.5-16-5.5H19c-8.777,0-16,2.482-16,5.5l0,0
		c0,3.018,7.223,5.5,16,5.5H109z"/>
</g>
<g filter="url(#Gaussian_Blur)">
	
		<linearGradient id="SVGID_2_" gradientUnits="userSpaceOnUse" x1="359.5" y1="835" x2="359.5" y2="829" gradientTransform="matrix(1 0 0 1 -295 -713)">
		<stop  offset="0" style="stop-color:#000000;stop-opacity:0.44"/>
		<stop  offset="1" style="stop-color:#000000;stop-opacity:0.17"/>
	</linearGradient>
	<path fill="url(#SVGID_2_)" d="M108,122c6.583,0,12-1.354,12-3l0,0c0-1.646-5.417-3-12-3H21c-6.583,0-12,1.354-12,3l0,0
		c0,1.646,5.417,3,12,3H108z"/>
</g>
<linearGradient id="SVGID_3_" gradientUnits="userSpaceOnUse" x1="211.5" y1="-148.5" x2="211.5" y2="-263.5005" gradientTransform="matrix(1 0 0 -1 -147.5 -142)">
	<stop  offset="0" style="stop-color:#81422A"/>
	<stop  offset="0.4601" style="stop-color:#2B160E"/>
</linearGradient>
<path fill="url(#SVGID_3_)" d="M121.5,108.465c0,7.199-5.836,13.035-13.034,13.035H19.534c-7.199,0-13.034-5.836-13.034-13.035
	v-88.93C6.5,12.336,12.335,6.5,19.534,6.5h88.932c7.198,0,13.034,5.836,13.034,13.035V108.465z"/>
<linearGradient id="SVGID_4_" gradientUnits="userSpaceOnUse" x1="211.5" y1="-150" x2="211.5" y2="-262.0005" gradientTransform="matrix(1 0 0 -1 -147.5 -142)">
	<stop  offset="0" style="stop-color:#E1A075"/>
	<stop  offset="0.7634" style="stop-color:#81422A"/>
</linearGradient>
<path fill="url(#SVGID_4_)" d="M120,108c0,6.6-5.4,12-12,12H20c-6.6,0-12-5.4-12-12V20c0-6.6,5.4-12,12-12h88c6.6,0,12,5.4,12,12
	V108z"/>
<g>
	<g>
		<defs>
			<rect id="SVGID_5_" x="11.465" y="11.465" width="105.57" height="105.57"/>
		</defs>
		<clipPath id="SVGID_6_">
			<use xlink:href="#SVGID_5_"  overflow="visible"/>
		</clipPath>
	</g>
</g>
<linearGradient id="SVGID_7_" gradientUnits="userSpaceOnUse" x1="211.5" y1="-150" x2="211.5" y2="-155.2996" gradientTransform="matrix(1 0 0 -1 -147.5 -142)">
	<stop  offset="0" style="stop-color:#FFFFFF;stop-opacity:0.6"/>
	<stop  offset="0.7634" style="stop-color:#FFFFFF;stop-opacity:0.2"/>
</linearGradient>
<path fill="url(#SVGID_7_)" d="M108,8H20C13.4,8,8,13.4,8,20v3c0-6.6,5.4-12,12-12h88c6.6,0,12,5.4,12,12v-3C120,13.4,114.6,8,108,8
	z"/>
<linearGradient id="SVGID_8_" gradientUnits="userSpaceOnUse" x1="211.5" y1="-150.4229" x2="211.5" y2="-261.116" gradientTransform="matrix(1 0 0 -1 -147.5 -142)">
	<stop  offset="0" style="stop-color:#FFFFFF;stop-opacity:0.6"/>
	<stop  offset="0.7634" style="stop-color:#FFFFFF;stop-opacity:0.2"/>
</linearGradient>
<path fill="url(#SVGID_8_)" d="M108,8H20C13.4,8,8,13.4,8,20v88c0,6.6,5.4,12,12,12h88c6.6,0,12-5.4,12-12V20
	C120,13.4,114.6,8,108,8z M119,108c0,6.05-4.95,11-11,11H20c-6.05,0-11-4.95-11-11V20c0-6.05,4.95-11,11-11h88c6.05,0,11,4.95,11,11
	V108z"/>
<radialGradient id="SVGID_9_" cx="-160.1387" cy="16.2588" r="0.9998" fx="-159.9057" fy="16.2588" gradientTransform="matrix(42.932 0 0 43.854 6939.561 -648.8389)" gradientUnits="userSpaceOnUse">
	<stop  offset="0.4194" style="stop-color:#C1D1DF"/>
	<stop  offset="0.7348" style="stop-color:#EFF4F9"/>
</radialGradient>
<path fill="url(#SVGID_9_)" d="M76.289,65.872c0,0-5.986,12.008-23.086,11.97c-20.52,0.038-31.635-12.824-31.635-23.94
	c0-11.115,8.55-15.352,14.535-15.352s14.535,2.565,14.535,15.39c0,3.829-0.855,10.241,7.695,15.371
	C66.883,74.441,76.289,65.872,76.289,65.872L76.289,65.872z M70.684,52.256c0,0,13.393-0.82,21.908,14.008
	c10.293,17.752,4.711,33.811-4.914,39.366c-9.627,5.558-17.57,0.272-20.562-4.911s-5.046-13.871,6.062-20.283
	c3.314-1.914,9.296-4.379,9.464-14.35C82.807,56.117,70.684,52.256,70.684,52.256L70.684,52.256z M61.73,64.181
	c0,0-7.407-11.187,1.176-25.977C73.133,20.414,89.83,17.22,99.457,22.777c9.625,5.558,9.02,15.081,6.027,20.264
	c-2.993,5.183-9.489,11.305-20.596,4.893c-3.315-1.915-8.441-5.861-17.16-1.022C59.011,51.752,61.73,64.181,61.73,64.181
	L61.73,64.181z"/>
<g opacity="0.55">
	<path d="M73.176,81.436c3.314-1.914,9.295-4.379,9.463-14.35c0.004-0.244-0.005-0.482-0.016-0.72
		c-0.277,9.728-6.165,12.174-9.447,14.069c-6.668,3.85-8.59,8.518-8.416,12.756C64.916,89.229,67.027,84.984,73.176,81.436z"/>
	<path d="M62.906,39.204C73.133,21.414,89.83,18.22,99.457,23.777c5.691,3.287,7.805,7.96,7.964,12.302
		c0.146-4.612-1.832-9.761-7.964-13.302c-9.627-5.557-26.324-2.363-36.551,15.427c-3.284,5.658-4.223,10.786-4.136,14.964
		C58.846,49.182,59.88,44.419,62.906,39.204z"/>
	<path d="M61.515,63.823c0.133,0.232,0.216,0.358,0.216,0.358s-0.349-1.607-0.395-3.887C61.305,61.715,61.406,62.948,61.515,63.823z
		"/>
	<path d="M70.684,52.256c0,0,1.153,0.369,2.743,1.168c4.365,0.598,13.029,3.158,19.165,13.84c3.766,6.492,5.398,12.756,5.495,18.362
		c0.091-5.858-1.505-12.481-5.495-19.362C84.075,51.436,70.684,52.256,70.684,52.256z"/>
	<path d="M58.333,70.311c6.594,3.957,13.694-0.232,16.599-2.357c0.932-1.235,1.356-2.08,1.356-2.08s-9.406,8.568-17.956,3.438
		c-6.876-4.125-7.668-9.078-7.715-12.852C50.57,60.323,50.832,65.811,58.333,70.311z"/>
	<path d="M36.104,39.55c5.934,0,14.383,2.527,14.528,15.067c0.003-0.233,0.007-0.46,0.007-0.677c0-12.825-8.55-15.39-14.535-15.39
		s-14.535,4.237-14.535,15.352c0,0.203,0.012,0.407,0.019,0.61C21.791,43.697,30.191,39.55,36.104,39.55z"/>
</g>
<g opacity="0.25">
	<path d="M61.021,63.507c0.235,0.438,0.391,0.674,0.391,0.674s-0.246-1.133-0.353-2.842C61.011,62.108,61.002,62.839,61.021,63.507z
		"/>
	<path d="M72.857,83.436c3.313-1.914,9.295-4.379,9.463-14.35c0.009-0.529-0.023-1.037-0.08-1.531
		c-0.705,8.742-6.239,11.065-9.383,12.881c-7.201,4.157-8.867,9.271-8.336,13.765C64.979,90.529,67.221,86.689,72.857,83.436z"/>
	<path d="M62.588,41.204c10.227-17.79,26.924-20.984,36.551-15.427c5.284,3.052,7.48,7.298,7.896,11.366
		c0.498-4.866-1.288-10.55-7.896-14.366c-9.627-5.557-26.324-2.363-36.551,15.427c-3.549,6.116-4.361,11.612-4.096,15.96
		C58.714,50.391,59.812,45.988,62.588,41.204z"/>
	<path d="M58.015,72.311c4.105,2.465,8.406,1.768,11.77,0.379c4.396-3.242,6.186-6.816,6.186-6.816s-9.406,8.568-17.956,3.438
		c-6.463-3.877-7.551-8.485-7.697-12.159C50.291,61.001,49.616,67.271,58.015,72.311z"/>
	<path d="M70.365,52.256c0,0,4.08,1.304,7.474,4.342c4.46,1.603,10.082,5.089,14.435,12.666c3.541,6.104,5.203,12.01,5.469,17.354
		c0.298-6.099-1.252-13.083-5.469-20.354C83.757,51.436,70.365,52.256,70.365,52.256z"/>
	<path d="M35.785,41.55c5.824,0,14.073,2.433,14.513,14.379c0.002-0.715,0.021-1.387,0.021-1.989c0-12.825-8.55-15.39-14.535-15.39
		c-5.985,0-14.535,4.237-14.535,15.352c0,0.494,0.03,0.991,0.073,1.49C22.067,45.412,30.082,41.55,35.785,41.55z"/>
	<g>
		<path fill="#FFFFFF" d="M82.623,65.366c0.003-0.097,0.014-0.183,0.016-0.28c0.116-6.896-5.646-10.867-9.212-12.662
			c-1.694-0.231-2.743-0.168-2.743-0.168S82.213,55.933,82.623,65.366z"/>
		<path fill="#FFFFFF" d="M61.515,62.823c-0.659-1.149-2.628-5.042-2.745-10.654c-0.14,7.32,2.96,12.013,2.96,12.013
			S61.62,63.669,61.515,62.823z"/>
		<path fill="#FFFFFF" d="M50.619,55.459c0.007-0.54,0.02-1.049,0.02-1.519c0-0.11-0.005-0.214-0.007-0.323
			C50.623,54.189,50.61,54.806,50.619,55.459z"/>
		<path fill="#FFFFFF" d="M87.678,104.63c-9.627,5.558-17.57,0.272-20.562-4.911c-1.195-2.072-2.239-4.703-2.354-7.525
			c-0.128,3.197,1.018,6.211,2.354,8.525c2.992,5.184,10.937,10.469,20.562,4.911c6.105-3.524,10.576-11.276,10.409-21.004
			C97.941,93.883,93.572,101.229,87.678,104.63z"/>
		<path fill="#FFFFFF" d="M105.484,42.041c-2.993,5.183-9.489,11.305-20.596,4.893c-3.315-1.915-8.441-5.861-17.16-1.022
			c-5.586,3.102-6.475,9.315-6.394,13.382c0.088-4.028,1.249-9.526,6.394-12.382c8.719-4.839,13.845-0.893,17.16,1.022
			c11.105,6.412,17.603,0.29,20.596-4.893c1.223-2.118,2.045-4.961,1.937-7.962C107.338,37.707,106.57,40.16,105.484,42.041z"/>
		<path fill="#FFFFFF" d="M76.289,65.872c0,0-0.496,0.45-1.357,1.08c-2.594,3.435-9.152,9.918-21.729,9.89
			c-20.146,0.037-31.219-12.359-31.616-23.33c-0.002,0.133-0.019,0.255-0.019,0.39c0,11.116,11.115,23.978,31.635,23.94
			C70.303,77.88,76.289,65.872,76.289,65.872z"/>
	</g>
</g>
</svg>
